<ttFont>
<head>
    <!-- Most of this table will be recalculated by the compiler -->
    <tableVersion value="1.0"/>
    <fontRevision value="1.004"/>
    <checkSumAdjustment value="0xd92df733"/>
    <magicNumber value="0x5f0f3cf5"/>
    <flags value="00000000 00000011"/>
    <unitsPerEm value="1000"/>
    <created value="Mon Jun 15 05:06:56 2015"/>
    <modified value="Thu Feb 20 21:40:15 2020"/>
    <xMin value="30"/>
    <yMin value="-82"/>
    <xMax value="972"/>
    <yMax value="838"/>
    <macStyle value="00000000 00000000"/>
    <lowestRecPPEM value="3"/>
    <fontDirectionHint value="2"/>
    <indexToLocFormat value="0"/>
    <glyphDataFormat value="0"/>
  </head>
              <CharString index="0">
                -351 rmoveto
                -8 48 -27 80 -31 60 -102 callsubr
                return
              </CharString>
              <CharString index="1">
                68 16 113 -96 callsubr
                return
              </CharString>
              <CharString index="2">
                77 -95 callsubr
                return
              </CharString>
              <CharString index="3">
                7 -101 callsubr
                return
              </CharString>
              <CharString index="4">
                hlineto
                14 70 12 68 11 61 -68 6 rcurveline
                -10 -62 -12 -71 -14 -72 rrcurveto
                -97 -67 84 -87 callsubr
                return
              </CharString>
              <CharString index="5">
                -46 -17 rcurveline
                28 -62 26 -81 8 -50 rrcurveto
                return
              </CharString>
              <CharString index="6">
                -93 callsubr
                -34 return
              </CharString>
              <CharString index="7">
                -103 callsubr
                11 44 30 return
              </CharString>
              <CharString index="8">
                -97 callsubr
                141 -79 callsubr
                return
              </CharString>
              <CharString index="9">
                -99 callsubr
                190 -107 callsubr
                return
              </CharString>
              <CharString index="10">
                -106 callsubr
                -60 rlinecurve
                return
              </CharString>
              <CharString index="11">
                90 vvcurveto
                -50 -104 callsubr
                return
              </CharString>
              <CharString index="12">
                -90 callsubr
                87 return
              </CharString>
              <CharString index="13">
                hlineto
                hintmask 011000000010101000000000
                -62 181 vlineto
                -31 -154 -66 -109 -129 -72 22 17 10 33 4 65 -18 5 -26 9 -14 11 rrcurveto
                -80 -4 -4 -12 -27 hhcurveto
                -113 hlineto
                -33 -5 4 24 hvcurveto
                87 vlineto
                80 19 87 29 62 32 -54 46 rcurveline
                -41 -26 -68 -26 -66 -20 rrcurveto
                98 -65 -240 vlineto
                -68 19 -19 77 vhcurveto
                -104 callgsubr
                18 15 2 7 11 hvcurveto
                14 -11 27 -24 10 -12 87 54 60 66 41 85 rrcurveto
                hintmask 100000000000001010000000
                -92 vlineto
                -55 5 -16 15 -12 vhcurveto
                -12 13 23 -4 18 hhcurveto
                53 hlineto
                18 21 3 6 11 hvcurveto
                14 7 9 13 5 18 5 17 3 52 1 44 -16 5 -20 10 -12 11 rrcurveto
                -48 -2 -37 -2 -16 vhcurveto
                -3 -15 -4 -9 -5 -3 rrcurveto
                -3 -5 -12 -2 -9 hhcurveto
                endchar
              </CharString>
              <CharString index="14">
                -2 -87 -16 -108 return
              </CharString>
              <CharString index="15">
                -88 callsubr
                -23 31 -26 29 -81 callsubr
                72 45 58 63 45 86 37 -37 32 -36 22 -31 45 60 rcurveline
                return
              </CharString>
              <CharString index="16">
                16 -82 callsubr
                return
              </CharString>
              <CharString index="17">
                vlineto
                -220 vmoveto
                return
              </CharString>
              <CharString index="18">
                70 912 -70 return
              </CharString>
              <CharString index="19">
                -106 callgsubr
                -120 -100 callsubr
                return
              </CharString>
              <CharString index="20">
                hlineto
                -24 -124 -27 -121 -22 -85 59 -35 rcurveline
                return
              </CharString>
              <CharString index="21">
                189 721 rmoveto
                755 68 -825 -294 hlineto
                -156 -7 -220 -76 -157 vhcurveto
                18 -7 31 -18 14 -11 rrcurveto
                79 164 11 241 164 vvcurveto
                return
              </CharString>
              <CharString index="22">
                104 54 73 69 50 91 rrcurveto
                -117 vlineto
                -45 4 -14 16 -13 vhcurveto
                -13 14 23 -3 22 hhcurveto
                55 hlineto
                18 22 3 7 12 hvcurveto
                15 8 10 12 6 18 6 17 3 50 1 45 -17 6 -24 13 -12 12 1 -46 -2 -40 -2 -15 -3 -11 -6 -7 -5 -4 rrcurveto
                -3 -6 -12 -1 -10 hhcurveto
                endchar
              </CharString>
              <CharString index="23">
                284 -154 rmoveto
                -70 -166 70 vlineto
                -193 vmoveto
                71 166 -71 vlineto
                70 -316 rmoveto
                56 -236 75 230 54 -230 75 227 305 -140 vlineto
                10 22 11 26 11 24 -69 16 rcurveline
                -5 -25 -10 -35 -10 -28 rrcurveto
                -89 -678 64 -100 callgsubr
                return
              </CharString>
              <CharString index="24">
                61 -31 69 75 53 cntrmask 0110111011111000
                cntrmask 1001000110100101
                hintmask 1110110111111101
                949 715 rmoveto
                68 -827 -281 vlineto
                -154 -7 -218 -77 -155 vhcurveto
                18 -7 30 -18 14 -11 rrcurveto
                81 163 10 238 162 vvcurveto
                213 vlineto
                return
              </CharString>
              <CharString index="25">
                -15 19 -26 10 -18 return
              </CharString>
              <CharString index="26">
                -27 rlinecurve
                -43 -85 -56 -73 callsubr
                return
              </CharString>
              <CharString index="27">
                rmoveto
                -89 callsubr
                hlineto
                return
              </CharString>
              <CharString index="28">
                -465 -80 callsubr
                return
              </CharString>
              <CharString index="29">
                hstemhm
                83 50 39 70 return
              </CharString>
              <CharString index="30">
                -38 -91 callsubr
                return
              </CharString>
              <CharString index="31">
                hstem
                83 50 39 70 return
              </CharString>
              <CharString index="32">
                232 -72 callsubr
                762 return
              </CharString>
              <CharString index="33">
                rrcurveto
                hintmask 101000000000001000000000
                85 -380 rmoveto
                -9 -7 2 4 -4 hvcurveto
                -5 3 -1 11 19 vvcurveto
                275 -6 4 return
              </CharString>
              <CharString index="34">
                -62 -67 -77 callsubr
                return
              </CharString>
              <CharString index="35">
                -71 callsubr
                -66 callsubr
                return
              </CharString>
              <CharString index="36">
                -68 callsubr
                -90 -34 29 -35 28 return
              </CharString>
              <CharString index="37">
                rmoveto
                -11 -131 -23 -110 return
              </CharString>
              <CharString index="38">
                -124 hlineto
                124 return
              </CharString>
              <CharString index="39">
                -70 callsubr
                -33 return
              </CharString>
              <CharString index="40">
                120 -69 -120 return
              </CharString>
              <CharString index="41">
                -34 25 18 76 18 87 18 86 rrcurveto
                return
              </CharString>
              <CharString index="42">
                hvcurveto
                25 11 7 19 36 vvcurveto
                return
              </CharString>
              <CharString index="43">
                -7 31 -18 13 -11 rrcurveto
                return
              </CharString>
        <CharString name=".notdef" fdSelectIndex="0">
          endchar
        </CharString>
        <CharString name="cid12223" fdSelectIndex="1">
          -67 64 55 56 75 54 74 61 -60 56 71 52 70 56 -46 61 83 68 hstemhm
          122 69 54 64 166 61 61 61 80 -83 callsubr
          hintmask 0110111000110000
          -84 callsubr
          hintmask 0001000100001010
          349 320 rmoveto
          199 -103 callgsubr
          -4 -73 -6 -66 -11 -60 rrcurveto
          hintmask 1001000000000100
          82 -375 rmoveto
          -10 -7 1 4 -5 hvcurveto
          -6 3 -2 6 8 vvcurveto
          281 vlineto
          3 11 rlineto
          144 61 hlineto
          hintmask 0001000100001010
          -96 callgsubr
          11 60 7 66 5 73 rrcurveto
          99 61 -339 -260 -40 -61 177 hlineto
          -41 -161 -80 -107 -154 -69 16 -12 27 -27 9 -11 rrcurveto
          hintmask 1000000000001101
          -85 callsubr
        </CharString>
        <CharString name="cid12224" fdSelectIndex="1">
          endchar
        </CharString>
        <CharString name="cid12342" fdSelectIndex="1">
          -59 73 170 70 411 69 hstem
          77 72 144 73 189 76 255 72 cntrmask 01111100
          293 665 rmoveto
          -411 -144 411 vlineto
          217 69 rmoveto
          -289 -646 72 96 217 hlineto
          316 -170 rmoveto
          -43 -8 10 50 hvcurveto
          287 vlineto
          112 75 108 90 83 96 -72 49 rcurveline
          -61 -77 -82 -75 -88 -65 rrcurveto
          361 -76 -414 vlineto
          -60 -39 -60 -35 -58 -27 17 -15 24 -26 12 -16 41 20 42 23 42 26 rrcurveto
          -236 vlineto
          -105 27 -30 91 vhcurveto
          -105 callgsubr
          93 20 60 167 10 hvcurveto
          -22 5 -30 14 -20 16 rrcurveto
          -150 -5 -7 -39 -43 hhcurveto
          endchar
        </CharString>
        <CharString name="cid15450" fdSelectIndex="1">
          -75 62 102 61 74 52 71 54 60 55 48 67 -45 53 64 55 hstemhm
          311 71 57 68 17 66 41 69 44 67 19 69 cntrmask 1111101101010100
          cntrmask 0000000000101000
          hintmask 1111101101010100
          700 150 rmoveto
          74 130 -74 vlineto
          -323 74 rmoveto
          124 -74 -69 callsubr
          197 rmoveto
          -71 -124 71 vlineto
          323 hmoveto
          -71 -130 71 vlineto
          hintmask 0000010010000000
          -389 217 -72 callsubr
          hintmask 0000101100101000
          395 22 rmoveto
          154 -70 -154 hlineto
          187 vmoveto
          154 -64 -154 hlineto
          hintmask 0101100000010100
          367 -489 rmoveto
          -58 251 -199 60 252 55 hlineto
          hintmask 0001101100111000
          -141 70 103 53 -103 64 122 55 -122 78 -67 -78 -154 78 -66 -78 -125 -55 125 -64 -98 -53 98 -70 -138 -55 245 -60 hlineto
          hintmask 1101010011000100
          -192 -251 -65 -40 hlineto
          -21 24 -26 25 -28 25 45 113 27 145 11 185 -43 6 rcurveline
          -92 callsubr
          -4 5 -4 6 -5 5 rrcurveto
          47 -164 68 164 323 -87 hlineto
          -11 -4 -3 -11 -1 vhcurveto
          -13 -1 -40 0 -46 1 8 -17 11 -27 3 -18 rrcurveto
          62 41 0 11 26 -65 callsubr
          87 58 vlineto
          endchar
        </CharString>
        <CharString name="cid15451" fdSelectIndex="1">
          endchar
        </CharString>
        <CharString name="cid15452" fdSelectIndex="1">
          endchar
        </CharString>
        <CharString name="cid18153" fdSelectIndex="1">
          656 68 -76 callsubr
          161 66 60 55 87 68 cntrmask 01110100
          81 367 rmoveto
          36 -98 callsubr
          157 192 rmoveto
          486 68 -486 112 -66 -112 -82 -68 82 -109 hlineto
          -191 -12 -213 -118 -175 vhcurveto
          17 -9 26 -21 13 -13 rrcurveto
          127 187 13 228 208 vvcurveto
          382 -272 rmoveto
          32 56 37 93 31 77 -65 16 rcurveline
          -19 -69 -39 -99 -30 -60 rrcurveto
          -274 -33 rmoveto
          40 57 12 94 8 84 -55 13 rcurveline
          -5 -81 -15 -88 -34 -51 rrcurveto
          264 344 rmoveto
          -68 -259 hlineto
          -71 -36 -210 -209 -108 vhcurveto
          13 -15 19 -28 9 -15 165 88 61 159 12 71 12 -70 55 -164 154 -84 10 17 20 29 12 15 rrcurveto
          -195 105 -34 212 69 vvcurveto
          endchar
        </CharString>
        <CharString name="cid18154" fdSelectIndex="1">
          endchar
        </CharString>
        <CharString name="cid18155" fdSelectIndex="1">
          endchar
        </CharString>
        <CharString name="cid59592" fdSelectIndex="1">
          -49 71 205 69 377 70 hstem
          79 70 159 71 161 75 281 69 cntrmask 01111100
          308 673 rmoveto
          -377 -159 377 vlineto
          230 70 rmoveto
          -300 -602 70 86 230 hlineto
          292 -205 rmoveto
          -47 -9 10 51 hvcurveto
          345 vlineto
          345 85 -18 68 -327 -80 rlineto
          319 -75 -337 vlineto
          -158 -39 17 -69 141 35 rlineto
          -326 vlineto
          -105 29 -28 95 vhcurveto
          178 hlineto
          92 21 53 154 10 hvcurveto
          -21 6 -29 13 -19 13 rrcurveto
          -134 -6 -7 -34 -45 hhcurveto
          endchar
        </CharString>
        <CharString name="cid59593" fdSelectIndex="1">
          endchar
        </CharString>
        <CharString name="cid61789" fdSelectIndex="1">
          -65 59 305 63 87 56 74 63 79 68 hstemhm
          119 70 59 65 157 64 59 63 82 68 -33 69 71 52 cntrmask 1111111110000000
          cntrmask 0000001001010000
          -97 callgsubr
          189 721 rmoveto
          755 68 -825 -294 hlineto
          -157 -7 -219 -81 -157 vhcurveto
          18 -64 callsubr
          85 164 11 240 165 vvcurveto
          281 87 rmoveto
          -77 -157 -105 callsubr
          157 -87 vlineto
          97 -316 rmoveto
          -15 58 -45 88 -46 65 -59 -20 rcurveline
          19 -27 19 -32 16 -31 -49 -18 -49 -17 -45 -15 rrcurveto
          205 221 340 -286 -567 vlineto
          -23 -8 -21 -7 -19 -6 24 -67 rcurveline
          77 30 99 37 96 38 10 -25 9 -24 5 -20 rrcurveto
          151 339 rmoveto
          217 vlineto
          hintmask 0101000000100000
          -102 callgsubr
          -3 -75 -5 -73 -13 -69 rrcurveto
          hintmask 1100000001000000
          81 -368 rmoveto
          -9 -6 1 3 -5 hvcurveto
          -5 4 -2 11 19 vvcurveto
          264 vlineto
          1 3 rlineto
          144 63 hlineto
          hintmask 0101000010100000
          -131 hlineto
          12 69 6 74 4 74 rrcurveto
          92 63 -341 -280 -38 -63 182 hlineto
          -39 -140 -82 -117 -184 -68 15 -13 20 -25 8 -16 rrcurveto
          hintmask 1000000011010000
          127 49 82 73 54 87 rrcurveto
          -92 vlineto
          -56 6 -16 15 -13 vhcurveto
          -12 14 25 -5 20 hhcurveto
          56 hlineto
          17 23 3 6 11 hvcurveto
          15 7 10 12 6 18 rrcurveto
          6 15 3 48 41 vvcurveto
          -16 6 -23 11 -13 12 rrcurveto
          -43 -2 -34 -2 -14 vhcurveto
          -2 -14 -5 -8 -6 -3 rrcurveto
          -3 -5 -12 -1 -10 hhcurveto
          endchar
        </CharString>
        <CharString name="cid61811" fdSelectIndex="1">
          -75 40 751 67 -76 callsubr
          133 69 77 58 86 72 cntrmask 00111010
          81 367 rmoveto
          36 -98 callsubr
          132 252 rmoveto
          499 67 -568 -300 hlineto
          -156 -10 -212 -102 -150 vhcurveto
          17 -7 32 -18 13 -11 rrcurveto
          104 154 15 236 164 vvcurveto
          403 -190 rmoveto
          31 57 38 92 30 78 -66 15 rcurveline
          -19 -68 -39 -99 -30 -60 rrcurveto
          -275 -36 rmoveto
          40 56 14 95 8 85 -58 14 rcurveline
          -7 -81 -16 -87 -35 -52 rrcurveto
          274 352 rmoveto
          -72 -268 hlineto
          -74 -38 -216 -214 -112 vhcurveto
          13 -15 21 -30 9 -16 169 90 63 165 12 73 13 -72 56 -169 158 -87 11 18 21 31 13 15 rrcurveto
          -200 110 -35 217 72 vvcurveto
          endchar
        </CharString>
        <CharString name="cid62031" fdSelectIndex="1">
          -65 53 -29 60 287 62 -58 51 78 49 78 51 -45 62 82 63 hstemhm
          122 70 48 61 -58 65 165 62 -41 58 53 61 83 63 -43 65 81 48 cntrmask 010111011101010000000000
          cntrmask 101000110010001010000000
          hintmask 010110111101011010000000
          949 716 rmoveto
          63 -827 -297 vlineto
          -153 -7 -214 -77 -152 vhcurveto
          18 -7 31 -19 14 -11 rrcurveto
          80 159 11 236 161 vvcurveto
          234 vlineto
          281 -228 rmoveto
          -172 hlineto
          hintmask 000111000101010000000000
          78 172 vlineto
          -205 vmoveto
          -172 78 172 hlineto
          62 178 rmoveto
          -128 hlineto
          10 22 11 23 10 24 -69 16 rcurveline
          -6 -24 -11 -32 -11 -29 rrcurveto
          -101 -307 295 hlineto
          131 58 rmoveto
          hintmask 000100100000010100000000
          204 103 vlineto
          -3 -75 -4 -68 -9 -61 -74 callsubr
          140 vlineto
          hintmask 000100100000010100000000
          62 -129 vlineto
          9 62 5 67 3 75 rrcurveto
          104 62 -333 -266 -44 -94 callsubr
        </CharString>
        <CharString name="cid62032" fdSelectIndex="1">
          -67 64 55 56 75 54 70 61 -56 56 71 52 70 56 -47 60 85 68 hstemhm
          122 69 54 64 166 61 66 61 75 -83 callsubr
          hintmask 1110111011111101
          -84 callsubr
          520 -55 rmoveto
          -10 -7 1 4 -5 hvcurveto
          -6 3 -2 6 8 vvcurveto
          hintmask 1111010111111101
          281 vlineto
          2 7 rlineto
          148 61 hlineto
          hintmask 1111010111111011
          -99 callgsubr
          11 61 8 67 5 74 rrcurveto
          101 60 -365 -60 -98 callgsubr
          -4 -74 -6 -68 -12 -60 rrcurveto
          -83 167 -61 hlineto
          hintmask 1110110111111101
          -167 -44 vlineto
          hintmask 1111010111111101
          -61 175 vlineto
          -41 -159 -80 -106 -153 -68 16 -12 27 -27 9 -11 -85 callsubr
        </CharString>
        <CharString name="cid62033" fdSelectIndex="1">
          -65 58 304 63 -59 59 88 55 76 63 79 68 hstemhm
          119 70 58 65 158 63 83 58 63 68 -32 68 71 53 cntrmask 1100111111000000
          cntrmask 0011100100101000
          hintmask 1101111111100000
          -86 callsubr
          281 87 rmoveto
          -79 -158 79 vlineto
          hintmask 0011100110000000
          -221 vmoveto
          87 158 -87 vlineto
          98 -316 rmoveto
          -15 59 -44 88 -46 65 -59 -20 rcurveline
          19 -27 18 -32 16 -31 -50 -17 -49 -17 -46 -16 rrcurveto
          204 221 341 -286 -567 vlineto
          -23 -7 -21 -7 -19 -6 26 -67 rcurveline
          78 29 99 39 95 37 11 -26 8 -24 5 -20 rrcurveto
          hintmask 0100100001010000
          168 337 rmoveto
          219 99 vlineto
          -4 -75 -5 -74 -13 -70 rrcurveto
          hintmask 1100000000100000
          81 -367 rmoveto
          -9 -6 1 3 -5 hvcurveto
          -6 4 -1 11 18 vvcurveto
          264 -1 vlineto
          1 3 rlineto
          145 63 hlineto
          hintmask 0100100001010000
          -96 callgsubr
          13 70 6 74 4 75 rrcurveto
          96 63 -371 -63 50 -219 -62 -63 182 hlineto
          -40 -139 -83 -118 -182 -68 15 -13 19 -24 9 -17 rrcurveto
          hintmask 1000000000101000
          127 50 82 74 54 88 rrcurveto
          -94 vlineto
          -56 5 -16 16 -13 vhcurveto
          -12 14 25 -4 20 hhcurveto
          56 hlineto
          17 23 2 6 11 hvcurveto
          15 7 10 12 6 17 6 16 3 48 1 41 -18 5 -23 12 -12 12 rrcurveto
          -44 -2 -33 -2 -15 vhcurveto
          -2 -13 -5 -8 -6 -3 rrcurveto
          -3 -5 -12 -1 -10 hhcurveto
          endchar
        </CharString>
        <CharString name="cid62034" fdSelectIndex="1">
          -65 53 -29 60 287 62 -58 51 78 49 78 51 -43 60 82 63 hstemhm
          122 70 48 61 -58 65 165 62 -41 58 59 59 79 63 -43 66 80 48 cntrmask 010111011101010000000000
          cntrmask 101000110010001010000000
          hintmask 010110111101011010000000
          949 716 rmoveto
          63 -827 -297 vlineto
          -153 -7 -214 -77 -152 vhcurveto
          18 -7 31 -19 14 -11 rrcurveto
          80 159 11 236 161 vvcurveto
          234 vlineto
          281 -228 rmoveto
          -172 hlineto
          hintmask 000111000101010000000000
          78 172 vlineto
          -205 vmoveto
          -172 78 172 hlineto
          62 178 rmoveto
          -128 hlineto
          10 22 11 23 10 24 -69 16 rcurveline
          -6 -24 -11 -32 -11 -29 rrcurveto
          -101 -307 295 hlineto
          135 58 rmoveto
          hintmask 000100100000010100000000
          206 99 vlineto
          -3 -76 -4 -68 -9 -62 -74 callsubr
          141 vlineto
          hintmask 000100100000010100000000
          62 -130 vlineto
          9 62 5 69 4 75 rrcurveto
          100 60 -367 -60 43 -206 -50 -94 callsubr
        </CharString>
        <CharString name="cid62039" fdSelectIndex="1">
          -52 71 206 69 377 69 hstem
          79 70 162 72 100 75 331 70 cntrmask 01111100
          311 671 rmoveto
          -377 -162 377 vlineto
          234 69 rmoveto
          -304 -618 70 103 234 hlineto
          240 -206 rmoveto
          -54 -11 12 55 hvcurveto
          261 vlineto
          131 76 143 98 93 94 -55 48 rcurveline
          -74 -77 -120 -88 -118 -70 rrcurveto
          407 -75 -748 vlineto
          -109 32 -30 103 vhcurveto
          206 hlineto
          102 22 56 157 11 hvcurveto
          -21 5 -30 13 -19 14 rrcurveto
          -138 -7 -9 -36 -53 hhcurveto
          endchar
        </CharString>
        <CharString name="cid62104" fdSelectIndex="1">
          -76 61 94 56 74 54 69 54 80 56 42 67 -43 53 64 55 hstemhm
          311 71 61 68 13 66 41 69 44 67 15 69 cntrmask 1111101101010100
          cntrmask 0000000000101000
          hintmask 0110101100111000
          590 588 rmoveto
          154 -66 -154 hlineto
          183 vmoveto
          154 -64 -154 hlineto
          362 -119 rmoveto
          -141 66 103 53 -103 64 122 55 -122 76 -67 -76 -154 76 -66 -76 -123 -55 123 -64 -98 -53 98 -66 -138 -56 566 hlineto
          -252 -331 rmoveto
          74 vlineto
          hintmask 1111010011010100
          126 -74 hlineto
          -315 74 rmoveto
          120 -74 -120 hlineto
          197 vmoveto
          -67 callsubr
          hlineto
          315 69 rmoveto
          -69 -126 69 vlineto
          -389 -75 callsubr
          -429 rmoveto
          -62 74 52 54 -52 123 -195 59 -69 -59 -188 -123 -66 -54 66 -74 -71 -23 hlineto
          -21 23 -25 25 -27 24 45 113 27 145 11 185 -43 6 rcurveline
          -92 callsubr
          -5 6 rlineto
          43 -155 68 155 315 -79 hlineto
          -11 -4 -4 -11 vhcurveto
          -13 -1 -40 0 -46 2 9 -17 10 -27 3 -18 rrcurveto
          62 41 1 10 26 hvcurveto
          25 11 7 19 35 vvcurveto
          79 -107 callgsubr
        </CharString>
        <CharString name="cid62105" fdSelectIndex="1">
          -76 61 94 58 74 52 69 54 80 54 44 67 -45 53 65 54 hstemhm
          311 71 57 68 17 66 43 65 46 67 19 69 cntrmask 1111101101010100
          cntrmask 0000000000101000
          hintmask 0110101100111000
          590 586 rmoveto
          154 -66 -154 hlineto
          184 vmoveto
          154 -65 -154 hlineto
          362 -119 rmoveto
          -141 66 104 53 -104 65 122 54 -122 78 -67 -78 -154 78 -66 -78 -123 -54 123 -65 -98 -53 98 -66 -138 -54 566 hlineto
          -254 -329 rmoveto
          74 vlineto
          hintmask 1111010011010100
          132 -74 hlineto
          -323 74 rmoveto
          126 -74 -126 hlineto
          126 195 rmoveto
          -69 -126 69 vlineto
          323 hmoveto
          -69 -132 69 vlineto
          -387 -75 callsubr
          -427 rmoveto
          -58 249 -201 57 -65 -57 -194 -249 -67 -25 hlineto
          -21 23 -25 25 -27 24 45 113 27 145 11 185 -43 6 rcurveline
          -88 callsubr
          -23 30 -26 30 -81 callsubr
          71 45 58 63 45 85 38 -37 32 -36 22 -30 45 60 rcurveline
          -5 6 rlineto
          39 -155 68 155 323 -79 hlineto
          -11 -4 -4 -11 vhcurveto
          -13 -1 -40 0 -46 2 8 -18 11 -26 3 -18 rrcurveto
          62 41 1 10 26 hvcurveto
          25 11 7 19 35 vvcurveto
          79 58 vlineto
          endchar
        </CharString>
        <CharString name="cid62172" fdSelectIndex="1">
          650 68 -78 callsubr
          223 69 6 54 77 66 cntrmask 01100100
          hintmask 11110100
          81 367 rmoveto
          36 -98 callsubr
          639 186 rmoveto
          68 -427 vlineto
          4 37 3 39 3 39 -69 4 rcurveline
          -3 -41 -3 -39 -4 -39 rrcurveto
          -120 -68 -101 callgsubr
          -26 -209 -49 -177 -98 -117 17 -8 35 -20 12 -10 99 131 50 184 29 226 rrcurveto
          340 -406 rmoveto
          27 56 33 88 25 73 -63 15 rcurveline
          -16 -64 -33 -95 -27 -58 rrcurveto
          hintmask 10001100
          -277 -30 rmoveto
          43 53 16 90 10 83 -54 14 rcurveline
          -9 -80 -19 -84 -40 -51 rrcurveto
          265 349 rmoveto
          -66 -247 hlineto
          -69 -35 -203 -212 -104 vhcurveto
          13 -15 19 -26 8 -16 167 86 61 154 12 68 12 -68 53 -158 155 -82 10 16 19 28 12 16 rrcurveto
          -196 101 -32 206 66 vvcurveto
          endchar
        </CharString>
      <CharString index="0">
        62 vlineto
        endchar
      </CharString>
      <CharString index="1">
        -11 -2 rlineto
        return
      </CharString>
      <CharString index="2">
        162 hlineto
        return
      </CharString>
      <CharString index="3">
        127 hlineto
        return
      </CharString>
      <CharString index="4">
        110 vlineto
        return
      </CharString>
      <CharString index="5">
        117 hlineto
        return
      </CharString>
      <CharString index="6">
        112 hlineto
        return
      </CharString>
      <CharString index="7">
        113 hlineto
        return
      </CharString>
      <CharString index="8">
        -136 hlineto
        return
      </CharString>
      <CharString index="9">
        195 hlineto
        return
      </CharString>
      <CharString index="10">
        hintmask 1111111111000000
        return
      </CharString>
      <CharString index="11">
        -132 hlineto
        return
      </CharString>
</ttFont>
